<svg xmlns="http://www.w3.org/2000/svg" viewBox="0 0 512 512" width="512" height="512">
  <defs>
    <linearGradient id="gradient" x1="0%" y1="0%" x2="100%" y2="100%">
      <stop offset="0%" style="stop-color:#059669;stop-opacity:1" />
      <stop offset="100%" style="stop-color:#047857;stop-opacity:1" />
    </linearGradient>
  </defs>
  
  <!-- Background Circle -->
  <circle cx="256" cy="256" r="240" fill="url(#gradient)" stroke="#ffffff" stroke-width="8"/>
  
  <!-- Mosque Silhouette -->
  <g fill="#ffffff">
    <!-- Main Dome -->
    <ellipse cx="256" cy="200" rx="80" ry="60"/>
    
    <!-- Side Domes -->
    <ellipse cx="180" cy="220" rx="40" ry="30"/>
    <ellipse cx="332" cy="220" rx="40" ry="30"/>
    
    <!-- Minarets -->
    <rect x="140" y="120" width="20" height="120" rx="10"/>
    <rect x="352" y="120" width="20" height="120" rx="10"/>
    
    <!-- Minaret Tops -->
    <ellipse cx="150" cy="120" rx="15" ry="20"/>
    <ellipse cx="362" cy="120" rx="15" ry="20"/>
    
    <!-- Main Building -->
    <rect x="200" y="240" width="112" height="80" rx="8"/>
    
    <!-- Entrance Arch -->
    <path d="M 230 280 Q 256 260 282 280 L 282 320 L 230 320 Z"/>
    
    <!-- Crescent Moon -->
    <path d="M 250 80 Q 270 60 290 80 Q 275 90 260 85 Q 255 82 250 80 Z"/>
    
    <!-- Stars -->
    <circle cx="200" cy="90" r="3"/>
    <circle cx="320" cy="95" r="3"/>
    <circle cx="180" cy="110" r="2"/>
    <circle cx="340" cy="105" r="2"/>
  </g>
  
  <!-- App Name -->
  <text x="256" y="380" font-family="Arial, sans-serif" font-size="36" font-weight="bold" text-anchor="middle" fill="#ffffff">Masjeed</text>
</svg>